#!OML:ASF E:\Style4\Style4.ASF
:FULLY-SPECIFIED
:DEGREES
2826
root 0.678708 16.901 -0.39972 -3.32746 -23.9167 4.20112
lowerback 14.7202 -0.45654 -2.89181
upperback 8.99933 -1.06677 1.3892
thorax 1.35148 -0.744927 3.22286
lowerneck 6.75969 -7.25045 -8.81383
upperneck -3.38703 -10.2869 3.22481
head -1.60283 -5.10599 2.86113
rclavicle 2.46493e-014 1.59028e-014
rhumerus -5.58451 13.6399 -83.854
rradius 125.947
rwrist 28.9947
rhand 26.8213 -6.46333
rfingers 7.12502
rthumb 50.8278 -27.2403
lclavicle 2.46493e-014 1.59028e-014
lhumerus 2.14373 -18.5016 84.3303
lradius 125.85
lwrist -16.5023
lhand 23.233 40.7956
lfingers 7.12502
lthumb 47.5341 63.2229
rfemur -25.341 10.1725 12.7685
rtibia 51.7204
rfoot -23.1289 -9.09723
rtoes -20.7344
lfemur -15.9004 13.6769 -24.3864
ltibia 48.8172
lfoot -32.4621 17.4753
ltoes -12.2255
2827
root 0.698639 16.8872 -0.394089 -3.42658 -24.3 4.14062
lowerback 14.7504 -0.519213 -2.69909
upperback 9.09414 -1.13156 1.31741
thorax 1.43444 -0.772296 3.04628
lowerneck 6.93513 -7.22844 -8.59327
upperneck -3.37586 -10.2594 3.08937
head -1.65 -5.09152 2.78795
rclavicle -1.82882e-014 7.15625e-015
rhumerus -5.81029 13.1026 -83.9692
rradius 125.926
rwrist 29.1865
rhand 26.9994 -6.64086
rfingers 7.12502
rthumb 50.9902 -27.3277
lclavicle -1.82882e-014 7.15625e-015
lhumerus 2.56606 -18.8177 84.2151
lradius 125.827
lwrist -16.4115
lhand 23.1865 40.7986
lfingers 7.12502
lthumb 47.4911 63.2454
rfemur -25.4336 10.5359 12.7957
rtibia 51.9097
rfoot -23.1443 -9.08437
rtoes -20.6739
lfemur -15.9002 14.0158 -24.3472
ltibia 49.0648
lfoot -32.5877 17.4623
ltoes -12.0083
2828
root 0.717545 16.873 -0.390193 -3.49798 -24.6318 4.11477
lowerback 14.8257 -0.589589 -2.63268
upperback 9.13834 -1.22118 1.31589
thorax 1.44664 -0.816842 3.01978
lowerneck 7.1188 -7.15894 -8.56648
upperneck -3.36523 -10.1847 2.989
head -1.69073 -5.05205 2.75978
rclavicle -6.44062e-014 4.29375e-014
rhumerus -6.04826 12.7422 -83.9837
rradius 125.862
rwrist 29.4246
rhand 27.0346 -6.73326
rfingers 7.12502
rthumb 51.0223 -27.4022
lclavicle -6.44062e-014 4.29375e-014
lhumerus 2.80523 -18.9291 84.3343
lradius 125.833
lwrist -16.3003
lhand 23.22 40.6897
lfingers 7.12502
lthumb 47.5221 63.1224
rfemur -25.5615 10.8637 12.7875
rtibia 52.0708
rfoot -23.1153 -9.15017
rtoes -20.8799
lfemur -15.9389 14.3435 -24.3524
ltibia 49.284
lfoot -32.6575 17.5518
ltoes -12.3122
2829
root 0.737369 16.8613 -0.383272 -3.59177 -24.899 4.18771
lowerback 14.8443 -0.671343 -2.70236
upperback 9.19096 -1.34022 1.35602
thorax 1.50538 -0.883803 3.11643
lowerneck 7.21888 -7.08238 -8.61431
upperneck -3.33256 -10.105 2.79293
head -1.71074 -5.00678 2.70719
rclavicle 3.97569e-015 -1.59028e-015
rhumerus -6.29302 12.4888 -83.9217
rradius 125.814
rwrist 29.6018
rhand 27.0801 -6.76089
rfingers 7.12502
rthumb 51.0637 -27.4067
lclavicle 3.97569e-015 -1.59028e-015
lhumerus 2.93634 -18.9261 84.5721
lradius 125.809
lwrist -16.166
lhand 23.1682 40.5573
lfingers 7.12502
lthumb 47.4743 63.0117
rfemur -25.6771 11.1112 12.6615
rtibia 52.2158
rfoot -23.1343 -9.34676
rtoes -21.7229
lfemur -15.9472 14.6086 -24.469
ltibia 49.4569
lfoot -32.8738 17.5929
ltoes -12.2936
2830
root 0.757475 16.8529 -0.374988 -3.68847 -25.1672 4.22653
lowerback 14.872 -0.774586 -2.72494
upperback 9.24509 -1.48236 1.39731
thorax 1.56173 -0.960599 3.19075
lowerneck 7.45568 -7.00095 -8.5752
upperneck -3.501 -10.0326 2.47853
head -1.83113 -4.95752 2.61664
rclavicle -9.93923e-015 -4.77083e-015
rhumerus -6.51848 12.3518 -83.8581
rradius 125.792
rwrist 29.6489
rhand 27.4151 -6.84757
rfingers 7.12502
rthumb 51.3687 -27.3209
lclavicle -9.93923e-015 -4.77083e-015
lhumerus 3.0615 -18.9339 84.7236
lradius 125.784
lwrist -16.0078
lhand 22.9541 40.6767
lfingers 7.12502
lthumb 47.2764 63.2201
rfemur -25.7322 11.3463 12.5679
rtibia 52.3606
rfoot -23.2196 -9.37977
rtoes -22.2534
lfemur -15.9023 14.845 -24.5465
ltibia 49.5816
lfoot -33.1917 17.5424
ltoes -11.9166
